<svg width="197" height="32" viewBox="0 0 197 32" fill="none" xmlns="http://www.w3.org/2000/svg">
<rect width="26.2167" height="1.4981" rx="0.749049" fill="#1A1A1A"/>
<rect x="32.9583" width="14.2319" height="1.4981" rx="0.749049" fill="#1A1A1A"/>
<rect x="55.4297" width="13.4829" height="1.4981" rx="0.749049" fill="#1A1A1A"/>
<rect x="55.4297" y="16.479" width="13.4829" height="1.4981" rx="0.749049" fill="#1A1A1A"/>
<rect x="74.156" width="21.7224" height="1.4981" rx="0.749049" fill="#1A1A1A"/>
<rect x="76.4031" y="16.479" width="15.73" height="1.4981" rx="0.749049" fill="#1A1A1A"/>
<rect x="102.62" width="10.4867" height="1.4981" rx="0.749049" fill="#1A1A1A"/>
<rect x="98.8745" y="16.479" width="8.98859" height="1.4981" rx="0.749049" fill="#1A1A1A"/>
<rect x="79.3992" y="29.9619" width="8.98859" height="1.4981" rx="0.749049" fill="#1A1A1A"/>
<rect x="118.35" width="23.9696" height="1.4981" rx="0.749049" fill="#1A1A1A"/>
<rect x="119.848" y="16.479" width="23.2205" height="1.4981" rx="0.749049" fill="#1A1A1A"/>
<rect x="99.6235" y="29.9619" width="32.2091" height="1.4981" rx="0.749049" fill="#1A1A1A"/>
<rect x="154.304" width="11.9848" height="1.4981" rx="0.749049" fill="#1A1A1A"/>
<rect x="174.529" width="22.4715" height="1.4981" rx="0.749049" fill="#1A1A1A"/>
</svg>
