<svg width="316" height="256" viewBox="0 0 316 256" fill="none" xmlns="http://www.w3.org/2000/svg">
<path d="M105.021 165.369H89.5524V192H63.0095V165.369H8.16571V146.473L64.5036 63.5039H89.5524V144.275H105.021V165.369ZM63.0095 144.275V122.479C63.0095 118.846 63.1559 113.572 63.4489 106.658C63.7419 99.7441 63.9763 95.7305 64.152 94.6172H63.4489C61.2809 99.4219 58.6735 104.109 55.6266 108.68L32.072 144.275H63.0095Z" fill="#F0F0F0"/>
<path d="M312.649 165.369H297.18V192H270.637V165.369H215.793V146.473L272.131 63.5039H297.18V144.275H312.649V165.369ZM270.637 144.275V122.479C270.637 118.846 270.783 113.572 271.076 106.658C271.369 99.7441 271.604 95.7305 271.779 94.6172H271.076C268.908 99.4219 266.301 104.109 263.254 108.68L239.699 144.275H270.637Z" fill="#F0F0F0"/>
<path fill-rule="evenodd" clip-rule="evenodd" d="M202.686 113.528C202.686 135.23 185.094 152.823 163.392 152.823C141.691 152.823 124.098 135.23 124.098 113.528C124.098 91.827 141.691 74.2344 163.392 74.2344C185.094 74.2344 202.686 91.827 202.686 113.528ZM186.367 185.253C179.124 187.571 171.404 188.823 163.392 188.823C121.808 188.823 88.098 155.112 88.098 113.528C88.098 71.9447 121.808 38.2344 163.392 38.2344C204.976 38.2344 238.686 71.9447 238.686 113.528C238.686 124.878 236.175 135.641 231.678 145.292C227.626 147.54 224.882 151.861 224.882 156.824C224.882 156.879 224.883 156.935 224.883 156.991C220.911 162.601 216.19 167.643 210.866 171.973C208.237 169.212 204.526 167.49 200.412 167.49C192.442 167.49 185.98 173.951 185.98 181.922C185.98 183.068 186.114 184.184 186.367 185.253Z" fill="#F5BC86"/>
<path fill-rule="evenodd" clip-rule="evenodd" d="M169.667 157.844C147.965 157.844 130.373 140.252 130.373 118.55C130.373 96.8484 147.965 79.2559 169.667 79.2559C191.368 79.2559 208.961 96.8484 208.961 118.55C208.961 125.105 207.384 131.187 204.62 136.537C198.043 149.269 184.826 157.844 169.667 157.844ZM228.349 165.731C226.196 163.385 224.882 160.258 224.882 156.824C224.882 149.546 230.782 143.647 238.059 143.647C238.925 143.647 239.771 143.731 240.59 143.89C243.42 135.972 244.961 127.441 244.961 118.55C244.961 76.9662 211.25 43.2559 169.667 43.2559C128.083 43.2559 94.3726 76.9662 94.3726 118.55C94.3726 160.134 128.083 193.844 169.667 193.844C176.49 193.844 183.102 192.936 189.388 191.235C187.262 188.722 185.98 185.471 185.98 181.922C185.98 173.951 192.442 167.49 200.412 167.49C207.385 167.49 213.203 172.436 214.549 179.01C214.737 178.871 214.925 178.73 215.111 178.589C214.936 177.846 214.843 177.071 214.843 176.275C214.843 170.73 219.338 166.235 224.882 166.235C225.834 166.235 226.754 166.368 227.626 166.615C227.869 166.322 228.11 166.027 228.349 165.731Z" fill="#D97A00"/>
<rect x="148.06" y="55.7422" width="2.5098" height="10.0392" rx="1.2549" transform="rotate(24.9765 148.06 55.7422)" fill="#50C0E3"/>
<rect x="166.17" y="57.0098" width="2.5098" height="10.0392" rx="1.2549" transform="rotate(-28.4753 166.17 57.0098)" fill="#57C730"/>
<rect x="191.362" y="72.041" width="2.5098" height="10.0392" rx="1.2549" transform="rotate(4.09443 191.362 72.041)" fill="#F9861D"/>
<rect x="213.035" y="79.166" width="2.5098" height="10.0392" rx="1.2549" transform="rotate(-24.6425 213.035 79.166)" fill="#EECE25"/>
<rect x="208.367" y="107.133" width="2.5098" height="10.0392" rx="1.2549" transform="rotate(-60.7866 208.367 107.133)" fill="#57C730"/>
<rect x="208.367" y="181.172" width="2.5098" height="10.0392" rx="1.2549" transform="rotate(-60.7866 208.367 181.172)" fill="#57C730"/>
<rect x="228.2" y="138.807" width="2.5098" height="10.0392" rx="1.2549" transform="rotate(-129.033 228.2 138.807)" fill="#F9861D"/>
<rect x="228.2" y="185.238" width="2.5098" height="10.0392" rx="1.2549" transform="rotate(-129.033 228.2 185.238)" fill="#F9861D"/>
<rect x="201.468" y="147.328" width="2.5098" height="10.0392" rx="1.2549" transform="rotate(-92.7463 201.468 147.328)" fill="#50C0E3"/>
<rect x="201.468" y="193.76" width="2.5098" height="10.0392" rx="1.2549" transform="rotate(-92.7463 201.468 193.76)" fill="#50C0E3"/>
<rect x="166.792" y="176.922" width="2.5098" height="10.0392" rx="1.2549" transform="rotate(-38.9219 166.792 176.922)" fill="#57C730"/>
<rect x="151.755" y="159.961" width="2.5098" height="10.0392" rx="1.2549" transform="rotate(57.2237 151.755 159.961)" fill="#EECE25"/>
<rect x="179.532" y="163.752" width="2.5098" height="10.0392" rx="1.2549" transform="rotate(-77.4608 179.532 163.752)" fill="#F9861D"/>
<rect x="179.532" y="207.674" width="2.5098" height="10.0392" rx="1.2549" transform="rotate(-77.4608 179.532 207.674)" fill="#F9861D"/>
<rect x="130.54" y="153.125" width="2.5098" height="10.0392" rx="1.2549" transform="rotate(94.1108 130.54 153.125)" fill="#F9861D"/>
<rect x="116.263" y="128.463" width="2.5098" height="10.0392" rx="1.2549" transform="rotate(20.2126 116.263 128.463)" fill="#EECE25"/>
<rect x="106.298" y="105.77" width="2.5098" height="10.0392" rx="1.2549" transform="rotate(-43.9757 106.298 105.77)" fill="#50C0E3"/>
<rect x="133.652" y="81.127" width="2.5098" height="10.0392" rx="1.2549" transform="rotate(-49.752 133.652 81.127)" fill="#F9861D"/>
<rect x="125.707" y="83.8848" width="2.5098" height="10.0392" rx="1.2549" transform="rotate(42.5693 125.707 83.8848)" fill="#57C730"/>
</svg>
