<svg width="24" height="24" viewBox="0 0 24 24" fill="none" xmlns="http://www.w3.org/2000/svg">
<path d="M14.4139 13.654L16.8889 11.179C17.4749 10.593 17.4749 9.643 16.8889 9.058C16.3029 8.472 15.3529 8.472 14.7679 9.058" stroke="#323232" stroke-width="1.5" stroke-linecap="round" stroke-linejoin="round"/>
<path d="M16.1819 11.886C16.7679 11.3 17.7179 11.3 18.3029 11.886C18.8889 12.472 18.8889 13.422 18.3029 14.007L15.8279 16.482" stroke="#323232" stroke-width="1.5" stroke-linecap="round" stroke-linejoin="round"/>
<path d="M12.293 11.533L18.303 5.523C18.889 4.937 18.889 3.987 18.303 3.402C17.717 2.816 16.767 2.816 16.182 3.402L8.75696 10.827V8.162C8.75696 7.29 8.04996 6.583 7.17796 6.583C6.45096 6.583 5.82596 7.096 5.68296 7.808L4.55996 13.43C4.08996 15.779 4.82496 18.208 6.51996 19.902C9.31796 22.7 13.855 22.7 16.653 19.902L18.657 17.898L19.718 16.837C20.304 16.251 20.304 15.301 19.718 14.716C19.132 14.13 18.182 14.13 17.597 14.716" stroke="#323232" stroke-width="1.5" stroke-linecap="round" stroke-linejoin="round"/>
<path d="M11.79 2.76L10.71 3.84" stroke="#323232" stroke-width="1.5" stroke-linecap="round" stroke-linejoin="round"/>
<path d="M2.70996 2.76L3.70996 3.76" stroke="#323232" stroke-width="1.5" stroke-linecap="round" stroke-linejoin="round"/>
<path d="M7.24994 2V3.41" stroke="#323232" stroke-width="1.5" stroke-linecap="round" stroke-linejoin="round"/>
</svg>
