<svg width="22" height="22" viewBox="0 0 22 22" fill="none" xmlns="http://www.w3.org/2000/svg">
<path d="M18.6042 3.83594L17.7437 4.40965" stroke="#323232" stroke-width="1.5" stroke-linecap="round" stroke-linejoin="round"/>
<path d="M19.4827 8.67334H18.6221" stroke="#323232" stroke-width="1.5" stroke-linecap="round" stroke-linejoin="round"/>
<path d="M2.77588 3.83594L3.63646 4.40965" stroke="#323232" stroke-width="1.5" stroke-linecap="round" stroke-linejoin="round"/>
<path d="M1.89697 8.67334H2.75755" stroke="#323232" stroke-width="1.5" stroke-linecap="round" stroke-linejoin="round"/>
<path d="M12.4479 18.345C12.2431 18.618 11.9776 18.8396 11.6724 18.9922C11.3671 19.1448 11.0306 19.2243 10.6893 19.2243C10.348 19.2243 10.0114 19.1448 9.70619 18.9922C9.40094 18.8396 9.13543 18.618 8.93066 18.345" stroke="#323232" stroke-width="1.5" stroke-linecap="round" stroke-linejoin="round"/>
<path d="M5.74332 12.2358V9.222C5.74332 7.91021 6.26443 6.65214 7.192 5.72456C8.11958 4.79699 9.37765 4.27588 10.6894 4.27588V4.27588C12.0012 4.27588 13.2593 4.79699 14.1869 5.72456C15.1145 6.65214 15.6356 7.91021 15.6356 9.222V12.2358H15.6318L16.7661 13.371C17.012 13.617 17.1793 13.9304 17.2471 14.2715C17.3148 14.6126 17.2799 14.9662 17.1467 15.2875C17.0135 15.6088 16.788 15.8833 16.4988 16.0765C16.2096 16.2696 15.8696 16.3727 15.5218 16.3726H5.85708C5.50929 16.3727 5.16929 16.2696 4.88007 16.0765C4.59084 15.8833 4.36539 15.6088 4.2322 15.2875C4.09902 14.9662 4.06409 14.6126 4.13182 14.2715C4.19956 13.9304 4.36692 13.617 4.61275 13.371L5.74706 12.2358" stroke="black" stroke-width="1.5" stroke-linecap="round" stroke-linejoin="round"/>
</svg>
