<svg width="24" height="24" viewBox="0 0 24 24" fill="none" xmlns="http://www.w3.org/2000/svg">
<path d="M10.8559 13.1439C9.6859 11.9739 8.8039 10.6639 8.2179 9.33487C8.0939 9.05387 8.1669 8.72487 8.3839 8.50787L9.2029 7.68987C9.8739 7.01887 9.8739 6.06987 9.2879 5.48387L8.1139 4.30987C7.3329 3.52887 6.0669 3.52887 5.2859 4.30987L4.6339 4.96187C3.8929 5.70287 3.5839 6.77187 3.7839 7.83187C4.2779 10.4449 5.7959 13.3059 8.2449 15.7549C10.6939 18.2039 13.5549 19.7219 16.1679 20.2159C17.2279 20.4159 18.2969 20.1069 19.0379 19.3659L19.6889 18.7149C20.4699 17.9339 20.4699 16.6679 19.6889 15.8869L18.5159 14.7139C17.9299 14.1279 16.9799 14.1279 16.3949 14.7139L15.4919 15.6179C15.2749 15.8349 14.9459 15.9079 14.6649 15.7839C13.3359 15.1969 12.0259 14.3139 10.8559 13.1439V13.1439Z" stroke="#323232" stroke-width="1.5" stroke-linecap="round" stroke-linejoin="round"/>
</svg>
