<svg width="144" height="144" viewBox="0 0 144 144" fill="none" xmlns="http://www.w3.org/2000/svg">
<path d="M104.062 14.0625H92.0569C91.0829 12.3826 89.2647 11.2503 87.1871 11.2503H70.0301C68.7234 4.83946 63.0408 0 56.2497 0C49.4587 0 43.7761 4.83946 42.4697 11.2503H25.3124C23.2348 11.2503 21.4165 12.3826 20.4426 14.0625H8.43746C3.78504 14.0625 0 17.8475 0 22.5V135.563C0 140.215 3.78504 144 8.43746 144H104.062C108.714 144 112.499 140.215 112.499 135.563V22.5C112.499 17.8475 108.714 14.0625 104.062 14.0625ZM44.9995 16.8752C46.5526 16.8752 47.812 15.6158 47.812 14.0628C47.812 9.41004 51.597 5.62499 56.2497 5.62499C60.9024 5.62499 64.6878 9.41004 64.6878 14.0628C64.6878 15.6158 65.9472 16.8752 67.5002 16.8752H87.1871V28.1249H25.3124L25.3118 16.8752H44.9995ZM106.874 135.563C106.874 137.114 105.613 138.375 104.062 138.375H8.43746C6.88665 138.375 5.62497 137.114 5.62497 135.563V22.5C5.62497 20.9491 6.88665 19.6875 8.43746 19.6875H19.6874V25.3124H14.0627C12.5097 25.3124 11.2502 26.5719 11.2502 28.1249V129.938C11.2502 131.491 12.5097 132.75 14.0627 132.75H43.5927C45.1458 132.75 46.4052 131.491 46.4052 129.938C46.4052 128.384 45.1458 127.125 43.5927 127.125H16.8752V30.9374H20.4423C21.4162 32.6176 23.2345 33.7499 25.3124 33.7499H87.1871C89.2649 33.7499 91.0832 32.6176 92.0572 30.9374H95.6245V127.125H68.9051C67.352 127.125 66.0926 128.384 66.0926 129.938C66.0926 131.491 67.352 132.75 68.9051 132.75H98.437C99.9901 132.75 101.25 131.491 101.25 129.938V28.1249C101.25 26.5719 99.9901 25.3124 98.437 25.3124H92.8121V19.6875H104.062C105.613 19.6875 106.874 20.9491 106.874 22.5V135.563Z" fill="#5F5F5F"/>
<path d="M56.2512 16.8757C57.8042 16.8757 59.0637 15.6162 59.0637 14.0632C59.0637 12.5101 57.8042 11.2507 56.2512 11.2507H56.2489C54.6959 11.2507 53.4376 12.5101 53.4376 14.0632C53.4376 15.6162 54.6978 16.8757 56.2512 16.8757Z" fill="#5F5F5F"/>
<path d="M132.172 30.6178C131.695 29.6649 130.721 29.0633 129.656 29.0633H121.219C119.665 29.0633 118.406 30.3227 118.406 31.8758C118.406 33.4288 119.665 34.6883 121.219 34.6883H124.031L118.969 41.4383C118.33 42.2905 118.226 43.4307 118.703 44.3838C119.179 45.3367 120.153 45.9383 121.219 45.9383H129.656C131.209 45.9383 132.469 44.6789 132.469 43.1258C132.469 41.5727 131.209 40.3133 129.656 40.3133H126.844L131.906 33.5633C132.545 32.7108 132.648 31.5709 132.172 30.6178Z" fill="#5F5F5F"/>
<path d="M141.187 15.0003H135.562L143.437 4.50034C144.076 3.64816 144.18 2.50797 143.703 1.55481C143.227 0.601931 142.253 0.000335693 141.187 0.000335693H129.937C128.384 0.000335693 127.125 1.25978 127.125 2.81284C127.125 4.36591 128.384 5.62535 129.937 5.62535H135.562L127.687 16.1253C127.048 16.9775 126.945 18.1177 127.422 19.0705C127.898 20.0237 128.872 20.6253 129.937 20.6253H141.187C142.741 20.6253 144 19.3658 144 17.8128C144 16.2597 142.741 15.0003 141.187 15.0003Z" fill="#5F5F5F"/>
<path d="M42.419 67.5863C41.366 68.6393 39.9659 69.2195 38.4767 69.2195C36.9878 69.2195 35.588 68.6395 34.5347 67.5863C33.4361 66.4883 31.6558 66.4883 30.557 67.5863C29.4587 68.6845 29.4587 70.4654 30.557 71.564C32.6725 73.6793 35.485 74.8445 38.4764 74.8445C41.4681 74.8445 44.2806 73.6793 46.3961 71.564C47.4944 70.4657 47.4944 68.6848 46.3961 67.5863C45.2981 66.4883 43.5175 66.4883 42.419 67.5863Z" fill="#5F5F5F"/>
<path d="M74.0233 74.8445C77.0149 74.8445 79.8274 73.6793 81.943 71.564C83.0413 70.4657 83.0413 68.6848 81.943 67.5863C80.8444 66.4883 79.0641 66.4883 77.9653 67.5863C76.9123 68.6393 75.5122 69.2195 74.023 69.2195C72.5338 69.2195 71.134 68.6395 70.0807 67.5863C68.9822 66.4883 67.2019 66.4883 66.103 67.5863C65.0047 68.6845 65.0047 70.4654 66.103 71.564C68.2194 73.6793 71.0319 74.8445 74.0233 74.8445Z" fill="#5F5F5F"/>
<path d="M60.2225 85.6757H52.2775C50.7244 85.6757 49.465 86.9351 49.465 88.4882C49.465 90.0413 50.7244 91.3007 52.2775 91.3007H60.2225C61.7755 91.3007 63.035 90.0413 63.035 88.4882C63.035 86.9351 61.7755 85.6757 60.2225 85.6757Z" fill="#5F5F5F"/>
<path d="M56.2501 127.125H56.2478C54.6948 127.125 53.4365 128.385 53.4365 129.938C53.4365 131.491 54.6967 132.75 56.2501 132.75C57.8034 132.75 59.0626 131.491 59.0626 129.938C59.0626 128.385 57.8031 127.125 56.2501 127.125Z" fill="#5F5F5F"/>
</svg>
