<svg width="64" height="64" viewBox="0 0 64 64" fill="none" xmlns="http://www.w3.org/2000/svg">
<path d="M40.888 50.667L36.4454 53.3337L32 50.667L27.5547 53.3337L23.112 50.667L18.6667 53.3337V18.667H45.3334V53.3337L40.888 50.667Z" stroke="white" stroke-width="2" stroke-linecap="round" stroke-linejoin="round"/>
<path d="M26.6667 42.667H37.3334" stroke="white" stroke-width="2" stroke-linecap="round" stroke-linejoin="round"/>
<path d="M45.3331 29.3333H50.6664V29.3333C53.8161 29.1096 56.1965 26.3888 55.9998 23.2373V14.096V14.096C56.1965 10.9446 53.8161 8.22368 50.6664 8H13.3331V8C10.1835 8.22369 7.803 10.9446 7.99977 14.096V23.24V23.24C7.80304 26.3909 10.1839 29.111 13.3331 29.3333H18.6664" stroke="white" stroke-width="2" stroke-linecap="round" stroke-linejoin="round"/>
<path d="M36.6669 29.3672L31.2829 34.7485L28.6669 32.1405" stroke="white" stroke-width="2" stroke-linecap="round" stroke-linejoin="round"/>
</svg>
