<svg width="76" height="55" viewBox="0 0 76 55" fill="none" xmlns="http://www.w3.org/2000/svg">
<rect width="76" height="55" rx="10" fill="#FF8E00"/>
<path d="M38.6285 6.00137C38.5914 6.26397 38.5599 6.52726 38.518 6.78987C38.4297 7.35573 38.4712 7.93419 38.6394 8.48175C38.7149 8.72589 38.8047 8.96661 38.8637 9.21417C38.9529 9.58825 38.8912 9.95343 38.7663 10.3138C38.6347 10.6664 38.4409 10.9927 38.1943 11.2774C38.1758 11.2952 38.1558 11.3115 38.1346 11.326C38.1293 11.2748 38.1293 11.2232 38.1346 11.1721C38.2447 10.74 38.2399 10.2867 38.1209 9.85701C38.0153 9.47336 37.8849 9.09655 37.7779 8.71427C37.6977 8.43115 37.6167 8.14734 37.6277 7.84644C37.6551 7.10308 37.9302 6.47871 38.5119 6L38.6285 6.00137Z" fill="black"/>
<path d="M24.2202 36.1011C24.2037 35.87 24.1804 35.6573 24.1756 35.4446C24.1646 35.0042 24.1667 34.5638 24.1571 34.1234C24.1461 33.6556 24.1262 33.1885 24.1125 32.7208C24.0823 31.695 24.0549 30.6747 24.0247 29.6516C24.0075 29.0628 23.9863 28.4733 23.9678 27.8838C23.9588 27.6212 23.9492 27.3586 23.9431 27.0953C23.9383 26.8553 23.9053 26.8217 23.6591 26.8217C23.5658 26.8217 23.4725 26.8217 23.3799 26.8217L21.9745 26.8012C21.6672 26.7964 21.3572 26.7944 21.0533 26.7848C20.6157 26.7718 20.1781 26.754 19.7405 26.7363C19.5992 26.7308 19.4579 26.7164 19.3159 26.711C18.8925 26.6959 18.4695 26.6825 18.047 26.6706C17.9276 26.6672 17.809 26.674 17.6896 26.6706C17.2897 26.6645 16.8905 26.6556 16.4906 26.6494C16.0907 26.6433 15.6909 26.6392 15.291 26.6337C14.9151 26.6282 14.5365 26.6241 14.164 26.6152C14.0433 26.6152 13.9233 26.5988 13.8025 26.5885C13.7182 26.5817 13.6784 26.6091 13.6805 26.7034C13.6935 27.3572 13.7003 28.011 13.7113 28.6648C13.7216 29.2577 13.7319 29.8499 13.7463 30.4428C13.76 30.9899 13.7785 31.5315 13.7964 32.0759C13.8073 32.4178 13.8204 32.7666 13.8307 33.1126C13.8485 33.6823 13.8629 34.252 13.8821 34.8223C13.8958 35.2148 13.9157 35.6081 13.9336 36.0232C13.819 36.0232 13.7278 36.0232 13.6372 36.0232C13.2614 36.0184 12.8862 36.0088 12.5103 36.0088C12.358 36.0088 12.2064 36.0382 12.0542 36.0389C11.8594 36.0389 11.6652 36.0232 11.4704 36.0191C11.1707 36.0122 10.8703 36.0102 10.5698 36.0054C10.2523 35.9999 9.93401 35.9869 9.61574 35.9917C9.52657 35.9917 9.5156 35.9616 9.51423 35.8946C9.51423 35.885 9.51423 35.8755 9.51423 35.8659C9.49594 35.0124 9.47719 34.1594 9.45798 33.3069C9.44381 32.6499 9.42826 31.9929 9.41134 31.336C9.39625 30.6927 9.38093 30.0496 9.36539 29.4068C9.34847 28.7147 9.33063 28.0226 9.31188 27.3305C9.30022 26.9024 9.28376 26.4743 9.27553 26.0462C9.25221 24.7879 9.23232 23.5289 9.20694 22.2706C9.19139 21.4372 9.17356 20.6036 9.15344 19.7697C9.13652 18.9988 9.11869 18.2283 9.09994 17.4582C9.07982 16.6412 9.0597 15.824 9.03958 15.0066C9.02586 14.4369 9.01969 13.8666 9.00117 13.2969C8.99156 13.0015 9.03615 12.9721 9.32972 12.9659C9.73166 12.957 10.135 13.0056 10.5383 13.0282C10.7418 13.0391 10.946 13.0484 11.1508 13.0562C11.5994 13.0726 12.0473 13.0835 12.4952 13.1027C12.7696 13.1143 13.048 13.1376 13.3327 13.1567C13.3485 13.2887 13.3745 13.418 13.3773 13.5479C13.402 14.8397 13.4219 16.1322 13.4459 17.4247C13.4623 18.3042 13.4836 19.1843 13.5028 20.0638C13.5158 20.6286 13.5275 21.1935 13.544 21.7584C13.5494 21.9574 13.5645 22.1564 13.5851 22.354C13.5913 22.377 13.6022 22.3984 13.6171 22.417C13.6319 22.4356 13.6505 22.4509 13.6715 22.4621C13.7205 22.4826 13.7735 22.4922 13.8266 22.4901C14.2319 22.4997 14.6366 22.5045 15.042 22.5141C15.5153 22.5259 15.9881 22.5389 16.4605 22.553C16.9186 22.5681 17.3761 22.5872 17.8323 22.6023C18.2884 22.6173 18.7391 22.629 19.1924 22.6433C19.7096 22.6593 20.2266 22.6757 20.7433 22.6926C21.148 22.7056 21.5527 22.7213 21.9574 22.7336C22.5276 22.75 23.0976 22.7653 23.6673 22.7794C23.7201 22.7794 23.773 22.7753 23.8429 22.7726C23.8429 22.7103 23.8429 22.6584 23.8429 22.6064C23.8354 21.889 23.8313 21.1703 23.8182 20.4536C23.8059 19.7765 23.7832 19.0995 23.7682 18.4225C23.7483 17.5335 23.7325 16.6397 23.7133 15.7486C23.6996 15.1057 23.6847 14.4627 23.6687 13.8194C23.6687 13.7667 23.6687 13.7134 23.6687 13.6361C23.8669 13.6361 24.0562 13.6306 24.2449 13.6361C24.4589 13.6443 24.6722 13.6682 24.8855 13.6778C25.1633 13.6901 25.4418 13.6915 25.7196 13.7038C26.2587 13.7264 26.7971 13.7503 27.3356 13.7811C27.6161 13.7975 27.658 13.8529 27.6641 14.1292C27.684 15.0264 27.7094 15.923 27.7279 16.8202C27.7471 17.7667 27.7588 18.7125 27.7773 19.6582C27.7924 20.4679 27.8116 21.277 27.8294 22.086C27.845 22.8223 27.8605 23.5586 27.8761 24.2949C27.8939 25.1155 27.9111 25.9361 27.9344 26.7527C27.9488 27.2676 27.9817 27.7833 27.9934 28.2982C28.0098 29.0286 28.0078 29.7596 28.0263 30.4866C28.0366 30.8655 28.0777 31.2429 28.0949 31.6218C28.1011 31.7415 28.0709 31.8632 28.0736 31.9836C28.0837 32.558 28.0974 33.1327 28.1148 33.7076C28.121 33.9128 28.145 34.1179 28.1511 34.3183C28.1683 34.8743 28.1793 35.4296 28.1964 35.9849C28.1964 36.0868 28.1813 36.1217 28.0592 36.1182C27.66 36.1073 27.2601 36.1237 26.8609 36.1182C26.3122 36.1121 25.7594 36.0936 25.2086 36.0854C24.9445 36.082 24.6797 36.0854 24.4157 36.0909L24.2202 36.1011Z" fill="black"/>
<path d="M47.7675 25.3274C47.7675 25.9922 47.7798 26.4565 47.7634 26.9195C47.7476 27.364 47.7147 27.8085 47.6632 28.251C47.6118 28.6934 47.5418 29.1325 47.4533 29.5681C47.3985 29.7912 47.323 30.0087 47.2277 30.2178C47.1076 30.5125 46.9821 30.8052 46.8436 31.0911C46.7201 31.3455 46.5822 31.5937 46.4389 31.8379C46.1424 32.3334 45.7904 32.7936 45.3894 33.2097C44.8646 33.7647 44.2668 34.2462 43.6122 34.641C42.9946 35.0166 42.333 35.3152 41.6423 35.5301C41.013 35.7323 40.3635 35.8656 39.7053 35.9274C39.492 35.9452 39.2807 35.9958 39.0667 36.017C38.9898 36.0145 38.9131 36.0076 38.8369 35.9965C38.5625 35.9965 38.2827 36.0067 38.0063 35.9965C37.7429 35.9882 37.4788 35.9705 37.2168 35.9417C36.9788 35.9191 36.7426 35.881 36.5096 35.8275C36.026 35.7085 35.5391 35.5937 35.0692 35.4336C34.6684 35.2887 34.2777 35.1173 33.8997 34.9207C33.5568 34.7498 33.2262 34.5535 32.901 34.3511C32.7268 34.2416 32.5759 34.0946 32.4127 33.9681C32.3201 33.8963 32.2138 33.8409 32.1294 33.7629C31.914 33.5578 31.713 33.3389 31.4956 33.1365C31.1842 32.8466 30.9338 32.506 30.6855 32.1668C30.5222 31.9325 30.3788 31.685 30.2568 31.4268C30.0511 31.0165 29.8453 30.5994 29.6731 30.1713C29.509 29.7699 29.3979 29.349 29.3425 28.9191C29.2842 28.4445 29.2129 27.972 29.1525 27.4974C29.132 27.3346 29.1258 27.1698 29.1162 27.0057C29.0812 26.4093 29.0476 25.813 29.0126 25.2167C28.992 24.8747 28.957 24.5389 28.944 24.1997C28.9093 23.3873 28.8789 22.5749 28.8528 21.7624C28.8356 21.2153 28.8281 20.6683 28.8185 20.1171C28.7938 18.7037 28.7693 17.2904 28.7451 15.8771C28.7451 15.795 28.7142 15.7136 28.7142 15.6323C28.7142 15.0852 28.7245 14.5429 28.728 13.9985C28.728 13.9116 28.7684 13.898 28.8466 13.9007C29.2266 13.9151 29.6066 13.9226 29.9873 13.9349C30.6101 13.9561 31.2336 13.9766 31.8564 14.0033C32.0889 14.0129 32.3208 14.0409 32.5533 14.0512C32.6486 14.0559 32.6665 14.1024 32.6644 14.1818C32.6569 14.4553 32.6521 14.7289 32.6459 15.0024C32.6459 15.1002 32.6411 15.198 32.6418 15.2958C32.65 17.1012 32.6548 18.9066 32.6685 20.7113C32.6733 21.3049 32.6987 21.8978 32.7172 22.4894C32.7259 22.7757 32.738 23.0625 32.7536 23.3497C32.7865 23.9358 32.8187 24.5225 32.8592 25.1079C32.8848 25.4799 32.9182 25.8513 32.9593 26.2219C33.0142 26.7157 33.0773 27.2088 33.1445 27.7011C33.1692 27.8061 33.1994 27.9098 33.2351 28.0116C33.244 28.0485 33.2172 28.093 33.2227 28.132C33.3044 28.755 33.4559 29.3629 33.7468 29.9196C33.8977 30.2082 34.1583 30.4393 34.3703 30.6958C34.4339 30.7806 34.5048 30.8598 34.5822 30.9324C34.8477 31.156 35.1145 31.379 35.393 31.5869C35.5123 31.6758 35.6632 31.7236 35.797 31.792C35.9112 31.863 36.0291 31.9278 36.1502 31.9863C36.3505 32.0649 36.5617 32.123 36.7634 32.1914C36.8693 32.2328 36.9777 32.2678 37.0878 32.296C37.3273 32.3483 37.5693 32.388 37.8128 32.415C38.1085 32.4417 38.4075 32.4513 38.7045 32.4506C39.4392 32.4421 40.1638 32.2789 40.8309 31.9719C41.1224 31.8433 41.4015 31.6867 41.6848 31.5397C41.7182 31.5152 41.7478 31.4859 41.7726 31.4528C41.8004 31.4207 41.8309 31.3909 41.8638 31.3639C42.0525 31.2313 42.2589 31.1191 42.429 30.9659C42.7879 30.6427 43.0959 30.2673 43.3427 29.8526C43.5944 29.4313 43.7995 28.9916 43.8914 28.5095C43.9531 28.1887 43.9785 27.8605 44.0197 27.5356C44.163 26.4052 44.0738 25.2707 44.0718 24.1375C44.0718 23.6219 44.0519 23.1062 44.0327 22.5913C44.0203 22.2767 43.984 21.9628 43.9723 21.6482C43.9579 21.2639 43.9607 20.8789 43.9511 20.4939C43.9422 20.1342 43.9284 19.7751 43.9154 19.4154C43.901 19.029 43.8818 18.6433 43.8708 18.2569C43.8523 17.6271 43.84 16.9966 43.8242 16.366C43.8091 15.7916 43.794 15.2178 43.7755 14.6434C43.7714 14.5155 43.8139 14.4622 43.9518 14.4669C44.5512 14.4868 45.1507 14.4964 45.7502 14.5134C46.1501 14.5244 46.5493 14.5415 46.9485 14.5579C47.1042 14.5641 47.2592 14.5784 47.4149 14.5832C47.5219 14.5873 47.5356 14.6475 47.5363 14.7378C47.5423 15.4795 47.5507 16.2215 47.5617 16.9637C47.5791 17.9923 47.5983 19.021 47.6193 20.05C47.6378 21.0075 47.6509 21.9649 47.6783 22.9168C47.7003 23.7881 47.7407 24.6586 47.7675 25.3274Z" fill="black"/>
<path d="M56.0725 35.6016H52.263C52.263 35.5627 52.263 35.5107 52.263 35.4594C52.2451 33.6143 52.2268 31.769 52.2081 29.9235C52.204 29.4954 52.204 29.0666 52.1999 28.6385C52.1541 24.1304 52.1084 19.6226 52.0627 15.115C52.0627 14.8552 52.0853 14.8189 52.3432 14.8285C52.8302 14.847 53.3165 14.8791 53.8028 14.903C54.1723 14.9208 54.5425 14.9361 54.9133 14.9488C55.4339 14.9659 55.9552 14.9769 56.4765 14.996C57.0115 15.0152 57.5465 15.035 58.0802 15.0644C58.8463 15.1096 59.5494 15.3564 60.2106 15.7373C60.7469 16.0497 61.2302 16.4446 61.6428 16.9074C62.1096 17.4198 62.4605 18.0262 62.6717 18.6855C62.7972 19.0819 62.8723 19.4925 62.8953 19.9076C62.9447 20.7282 62.7732 21.5099 62.4776 22.2696C62.409 22.4481 62.3301 22.6239 62.2512 22.8113C62.4309 22.9364 62.6154 23.0664 62.7999 23.1942C63.3277 23.5575 63.8063 23.9871 64.2239 24.4724C64.7827 25.1095 65.2148 25.8468 65.4969 26.645C65.6444 27.0649 65.7178 27.5108 65.8173 27.9444C65.9277 28.4286 65.9085 28.9244 65.8824 29.412C65.851 29.9373 65.7511 30.4564 65.5854 30.9561C65.3975 31.536 65.1636 32.0913 64.8097 32.5933C64.4991 33.0222 64.1406 33.4146 63.741 33.7627C63.2834 34.1713 62.7698 34.5128 62.2155 34.7769C61.6044 35.0723 60.9713 35.3048 60.295 35.4019C59.9026 35.458 59.5096 35.5052 59.1173 35.5565C59.1029 35.5565 59.0878 35.5565 59.0734 35.5565C58.7037 35.6454 58.6467 35.5038 58.6378 35.205C58.6207 34.634 58.6241 34.0629 58.6145 33.4953C58.6111 33.3066 58.5857 33.1178 58.583 32.9291C58.5853 32.8033 58.5944 32.6777 58.6104 32.553C58.6241 32.3991 58.7435 32.3307 58.8642 32.2897C58.9697 32.2507 59.0835 32.2389 59.1948 32.2555C59.4911 32.3136 59.7758 32.2507 60.059 32.1973C60.6242 32.0913 61.138 31.8438 61.6298 31.5586C62.1099 31.2851 62.5119 30.9151 62.7327 30.4022C62.8412 30.126 62.9141 29.8371 62.9495 29.5426C62.989 29.2302 63.0082 28.9157 63.0071 28.6009C63.0187 27.8527 62.7252 27.2222 62.2142 26.6908C61.9926 26.4489 61.7469 26.2301 61.4809 26.0378C61.134 25.7977 60.7504 25.615 60.3451 25.4968C59.8957 25.3757 59.4311 25.3199 58.9657 25.3313C58.36 25.3354 57.7537 25.3313 57.148 25.3224C56.9889 25.3224 56.8305 25.2848 56.6679 25.2807C56.5307 25.2766 56.3874 25.2999 56.2474 25.3012C55.9731 25.3012 55.9731 25.3012 55.9786 25.5843C56.0078 28.5619 56.0366 31.5395 56.065 34.517C56.0753 34.8692 56.0725 35.2187 56.0725 35.6016ZM55.958 21.7711L57.8593 21.8019C58.149 21.8107 58.4369 21.7534 58.7009 21.6343C59.1125 21.4456 59.4609 21.1707 59.6022 20.7453C59.808 20.1264 59.6516 19.5472 59.2257 19.0582C58.9321 18.7211 58.5274 18.5501 58.0946 18.4885C57.5459 18.412 56.9971 18.3866 56.4484 18.3408C56.2845 18.3272 56.1198 18.3176 55.9593 18.3066L55.958 21.7711Z" fill="black"/>
<path d="M43.8571 21.778C43.8742 22.0304 43.8989 22.2854 43.9065 22.5419C43.9167 22.8838 43.9065 23.2257 43.9167 23.5677C43.9314 24.2201 43.9485 24.8725 43.9682 25.5249C43.9682 25.6193 43.9984 25.7137 43.9956 25.808C43.9956 25.8846 43.949 25.9599 43.9442 26.0364C43.914 26.5254 43.9065 27.0157 43.8591 27.5027C43.7823 28.3 43.5717 29.0598 43.1225 29.7382C42.5785 30.5589 41.8727 31.2024 40.9564 31.5806C40.5158 31.7558 40.0639 31.9014 39.6037 32.0162C39.1246 32.1337 38.6293 32.1709 38.1379 32.1263C37.1516 32.0579 36.2304 31.7741 35.4073 31.2051C34.7415 30.7543 34.1922 30.1527 33.8044 29.4496C33.721 29.2753 33.651 29.095 33.5952 28.9101C33.521 28.7299 33.4611 28.5442 33.4161 28.3548C33.3578 28.0361 33.3222 27.7133 33.2913 27.3912C33.2591 27.0493 33.2309 26.7018 33.2227 26.3565C33.2138 25.8593 33.2309 25.3615 33.2282 24.8636C33.2282 24.5819 33.1946 24.3001 33.2001 24.019C33.2056 23.7592 33.2481 23.5013 33.2035 23.2401C33.1939 23.1854 33.2337 23.1225 33.2549 23.0493C33.6452 23.1177 34.0259 23.1861 34.408 23.2415C34.6899 23.2839 34.9731 23.3153 35.2564 23.3441C35.4252 23.3612 35.5953 23.3687 35.7654 23.3707C36.4164 23.3714 37.0615 23.247 37.6653 23.0042C37.8382 22.9358 37.9973 22.8387 38.1681 22.7669C38.2854 22.7183 38.4144 22.6985 38.5317 22.652C38.6002 22.6253 38.6428 22.5528 38.7072 22.5241C39.1545 22.3292 39.5989 22.1302 40.0544 21.9524C40.3692 21.8293 40.6909 21.7014 41.0208 21.6446C41.3615 21.5962 41.7066 21.5852 42.0497 21.6118C42.4564 21.633 42.8611 21.6994 43.2672 21.7404C43.462 21.7589 43.6561 21.7657 43.8571 21.778Z" fill="black"/>
<path d="M47.8079 20.6088C47.7928 20.3237 47.7757 20.0529 47.7647 19.782C47.7469 19.3471 47.7366 18.9122 47.716 18.4779C47.7092 18.3411 47.7524 18.3001 47.8896 18.3008C48.532 18.3055 49.1608 18.4862 49.7072 18.8233C50.3355 19.2014 50.8397 19.7013 51.1415 20.3832C51.4033 20.9492 51.5021 21.5766 51.4268 22.1954C51.3949 22.4578 51.3444 22.7176 51.2759 22.973C51.2341 23.1248 51.1387 23.2616 51.0619 23.4031C50.9956 23.539 50.9211 23.6708 50.839 23.7977C50.7476 23.9315 50.6415 24.0546 50.5228 24.1649C50.3565 24.311 50.181 24.4462 49.9974 24.5698C49.7122 24.7809 49.3886 24.9346 49.0446 25.0225C48.7538 25.0909 48.4609 25.147 48.1687 25.2072C48.0315 25.2345 47.9972 25.1545 47.9918 25.0423V25.028C47.976 24.4843 47.9609 23.9406 47.9431 23.397C47.9431 23.3204 47.9184 23.2445 47.9143 23.1672C47.906 22.9839 47.9458 22.9442 48.1337 22.9278C48.4207 22.9075 48.6954 22.8043 48.9246 22.631C49.2415 22.3903 49.3259 22.0121 49.2676 21.6654C49.1509 21 48.5268 20.6143 47.9218 20.6123C47.8875 20.6123 47.8539 20.6088 47.8079 20.6088Z" fill="black"/>
<path d="M35.1564 46.2802C35.0969 46.3188 35.0403 46.3616 34.9869 46.4081C34.6763 46.7456 34.2584 46.9659 33.8037 47.0318C33.2029 47.1104 32.6192 47.0496 32.1575 46.5914C31.9502 46.3981 31.8043 46.1484 31.7378 45.8733C31.6362 45.4231 31.6861 44.9521 31.8798 44.5329C32.0718 44.1178 32.4086 43.8792 32.84 43.7308C33.3147 43.5666 33.8044 43.5509 34.2942 43.5194C34.5493 43.503 34.8065 43.5194 35.0761 43.5194C35.0713 43.2735 35.0278 43.0298 34.9472 42.7973C34.7757 42.2994 34.3298 42.1319 33.8133 42.1818C33.2968 42.2317 32.8229 42.4171 32.3311 42.547C32.2248 42.575 32.1596 42.5812 32.139 42.4403C32.1137 42.2652 32.056 42.0984 32.0211 41.9219C32.019 41.9014 32.022 41.8807 32.0296 41.8616C32.0372 41.8424 32.0494 41.8254 32.065 41.8118C32.5897 41.5666 33.1546 41.4181 33.7324 41.3735C34.1927 41.3393 34.6399 41.3783 35.0596 41.565C35.3505 41.6942 35.6447 41.8385 35.7401 42.1948C35.7606 42.2728 35.8361 42.3357 35.8642 42.4136C35.8978 42.516 35.9228 42.621 35.939 42.7275C35.9685 42.8835 35.9932 43.0414 36.0192 43.198C36.0787 43.5137 36.1088 43.8342 36.1091 44.1554C36.094 44.9836 36.1091 45.8118 36.1091 46.6399C36.1091 46.8369 36.1091 46.841 35.9095 46.8355C35.7686 46.8368 35.6279 46.8256 35.489 46.802C35.4162 46.7894 35.3495 46.7537 35.2987 46.7002C35.2479 46.6468 35.2158 46.5784 35.2071 46.5052C35.1941 46.4389 35.1776 46.3787 35.1564 46.2802ZM32.7495 45.3502C32.7536 45.4035 32.7564 45.4575 32.7639 45.5102C32.8167 45.8843 33.0815 46.1988 33.4025 46.2159C33.8401 46.2399 34.2462 46.1318 34.5685 45.8056C34.9478 45.4233 35.0363 44.933 35.0699 44.4263C35.0699 44.3927 35.0013 44.323 34.967 44.3244C34.4999 44.3483 34.0301 44.3586 33.5671 44.4194C33.0849 44.4851 32.7296 44.918 32.7495 45.3502Z" fill="black"/>
<path d="M50.6394 44.4711C50.0488 44.4854 49.4589 44.4977 48.8684 44.5141C48.6791 44.5189 48.4891 44.5333 48.2991 44.5415C48.1091 44.5497 48.0144 44.6407 48.0521 44.8198C48.0985 45.022 48.1676 45.2184 48.2579 45.4052C48.4081 45.726 48.6873 45.8921 49.0124 46.0091C49.3554 46.1315 49.6832 46.111 50.0255 46.0289C50.3403 45.953 50.662 45.9038 50.9789 45.8354C51.066 45.8162 51.1072 45.8354 51.1278 45.9209C51.1703 46.0952 51.221 46.2683 51.2553 46.444C51.2545 46.4679 51.2474 46.4911 51.2348 46.5114C51.2221 46.5316 51.2044 46.5483 51.1833 46.5596C50.7032 46.7073 50.223 46.8612 49.7038 46.8714C49.3738 46.8884 49.0429 46.8703 48.7168 46.8174C48.3452 46.744 48.01 46.5461 47.7668 46.2566C47.6296 46.1035 47.5137 45.9345 47.3882 45.7731C47.3816 45.7657 47.3761 45.7574 47.3717 45.7485C47.2709 45.488 47.1454 45.2329 47.0768 44.9634C47.017 44.6936 46.9814 44.419 46.9704 44.1428C46.9622 44.0197 47.0171 43.8939 47.0226 43.768C47.0274 43.6559 46.9752 43.5362 46.9986 43.4309C47.0543 43.1425 47.1342 42.8594 47.2373 42.5843C47.5233 41.8854 48.0995 41.5509 48.8149 41.4108C49.2866 41.3239 49.7728 41.3578 50.2278 41.5092C50.4897 41.5946 50.729 41.7373 50.9282 41.9271C51.0663 42.0571 51.1688 42.2203 51.2258 42.401C51.3167 42.6663 51.3815 42.9397 51.4193 43.2175C51.4598 43.4767 51.4727 43.7394 51.4577 44.0012C51.4385 44.3001 51.2334 44.4546 50.909 44.4663C50.8212 44.4663 50.7327 44.4663 50.6449 44.4663L50.6394 44.4711ZM49.1784 43.9082V43.8399H50.2635C50.3925 43.8399 50.4528 43.7715 50.437 43.647C50.418 43.4007 50.3832 43.1558 50.3328 42.9139C50.256 42.6191 50.0996 42.3668 49.7923 42.2458C49.3334 42.0659 48.9157 42.1623 48.5426 42.4578C48.1036 42.8052 48.0055 43.2955 48.0069 43.8214C48.0069 43.9103 48.0576 43.9062 48.1221 43.9062C48.474 43.9069 48.8258 43.9082 49.1784 43.9082Z" fill="black"/>
<path d="M40.8584 42.2872H40.0764C40.0668 42.0561 40.0538 41.8393 40.0545 41.6232C40.0545 41.5931 40.1231 41.5411 40.1649 41.537C40.3487 41.5193 40.5339 41.5138 40.7191 41.5076C40.811 41.5076 40.8405 41.4632 40.8494 41.3708C40.8735 41.1212 40.881 40.8641 40.9503 40.6254C41.0511 40.2801 41.189 39.9416 41.4949 39.7111C41.5477 39.6714 41.5683 39.5743 41.6218 39.5538C42.0025 39.4211 42.3845 39.2803 42.8022 39.3671C43.008 39.4109 43.222 39.441 43.4271 39.4971C43.5204 39.5308 43.6052 39.5845 43.6754 39.6543C43.7028 39.6783 43.7001 39.7494 43.6932 39.7966C43.6679 39.9703 43.6301 40.1385 43.6055 40.3163C43.5904 40.4237 43.5293 40.4312 43.4504 40.4004C43.2776 40.3321 43.1116 40.25 42.9346 40.1994C42.7913 40.1543 42.6409 40.1353 42.4908 40.1433C42.3077 40.1597 42.187 40.2623 42.0882 40.4449C41.9208 40.754 41.951 41.0836 41.8989 41.4023C41.8981 41.4358 41.9009 41.4692 41.9071 41.5022C41.9634 41.5056 42.0148 41.5124 42.0669 41.5124C42.4339 41.5124 42.8009 41.5199 43.1678 41.5124C43.2824 41.5124 43.3325 41.5534 43.3331 41.6608C43.3331 41.8557 43.3331 42.0506 43.3331 42.2626C43.2721 42.2626 43.2207 42.2695 43.1692 42.2708C42.7933 42.279 42.4147 42.2893 42.0422 42.2941C41.9586 42.2941 41.9174 42.3132 41.9188 42.4076C41.9188 42.6565 41.8879 42.9096 41.9229 43.1537C41.9771 43.5202 41.9352 43.8841 41.938 44.2479C41.9442 45.0507 41.927 45.8536 41.9243 46.6565C41.9243 46.7679 41.8968 46.8062 41.7768 46.809C41.5552 46.8131 41.3337 46.8507 41.1121 46.8582C40.8906 46.8657 40.8735 46.8315 40.87 46.6161C40.8659 46.335 40.8515 46.054 40.846 45.7729C40.846 45.6047 40.8549 45.4358 40.846 45.2682C40.8302 44.9475 40.8824 44.6295 40.8618 44.3108C40.8412 43.9921 40.8563 43.6584 40.8556 43.3322L40.8584 42.2872Z" fill="black"/>
<path d="M26.5166 47.125C25.7806 47.1181 25.2401 47.0087 24.7558 46.7051C24.2963 46.4174 23.9448 45.9867 23.7558 45.4796C23.6193 45.1207 23.5404 44.7427 23.5219 44.3594C23.4837 43.8518 23.5594 43.342 23.7434 42.8672C23.8901 42.4973 24.1201 42.166 24.4156 41.8988C24.7166 41.6153 25.097 41.4297 25.5062 41.3668C25.734 41.3414 25.9638 41.3384 26.1921 41.3579C26.4878 41.3736 26.7813 41.4222 27.0763 41.4345C27.3191 41.4441 27.5262 41.5754 27.7622 41.6034C27.793 41.6075 27.8424 41.6855 27.8369 41.7224C27.8088 41.9139 27.7684 42.104 27.7238 42.2921C27.7147 42.3125 27.7006 42.3302 27.6827 42.3436C27.6648 42.357 27.6437 42.3657 27.6216 42.3687C27.2971 42.3139 26.9754 42.2428 26.651 42.1888C26.0488 42.0876 25.485 42.1464 25.0425 42.6272C24.8052 42.8836 24.6996 43.2037 24.642 43.5353C24.6063 43.7405 24.6283 43.9573 24.6015 44.1659C24.5789 44.3471 24.6481 44.5167 24.6481 44.6829C24.6481 45.0132 24.7661 45.2881 24.9225 45.5555C25.2655 46.1327 25.9802 46.3761 26.6105 46.2393C26.8746 46.1805 27.1373 46.1135 27.3986 46.041C27.5708 45.9932 27.7135 46.0711 27.8287 46.1641C27.8891 46.2127 27.9097 46.357 27.8904 46.4459C27.8589 46.5902 27.8088 46.7242 27.6469 46.8145C27.3002 47.0059 26.9127 47.1124 26.5166 47.125Z" fill="black"/>
<path d="M43.8317 20.4667C43.7247 20.5084 43.6184 20.5823 43.5107 20.585C43.2486 20.5898 42.9864 20.5768 42.726 20.546C42.3426 20.5016 41.964 20.4154 41.5799 20.3881C41.3211 20.3661 41.0604 20.3892 40.8096 20.4564C40.5588 20.5389 40.3224 20.6595 40.1086 20.8141C39.6525 21.1253 39.2169 21.4638 38.767 21.7859C38.256 22.1531 37.7456 22.5251 37.1695 22.7884C36.9164 22.904 36.6571 23.0264 36.3882 23.0818C36.1036 23.1399 35.8031 23.1269 35.5096 23.1351C35.3738 23.1411 35.2377 23.1313 35.1042 23.1057C34.5479 22.9874 33.9916 22.8643 33.4381 22.7324C33.2392 22.6858 33.2241 22.6414 33.2467 22.4417C33.2529 22.3764 33.2529 22.3107 33.2467 22.2454C33.243 22.2224 33.2452 22.1988 33.2532 22.1769C33.2611 22.155 33.2746 22.1355 33.2922 22.1202C33.3099 22.1049 33.3312 22.0944 33.3541 22.0896C33.377 22.0848 33.4007 22.086 33.423 22.0929C33.9457 22.1996 34.4649 22.3384 34.9931 22.3973C35.539 22.4657 36.0931 22.3742 36.5878 22.134C37.1983 21.8344 37.7319 21.4241 38.2717 21.0206C38.7697 20.6486 39.2601 20.2684 39.8185 19.9853C40.4204 19.6707 41.1006 19.5361 41.7774 19.5975C42.331 19.6522 42.844 19.8519 43.3283 20.1213C43.4956 20.2144 43.6582 20.3169 43.8228 20.4147L43.8317 20.4667Z" fill="black"/>
<path d="M36.7154 17.605C36.7394 17.3855 36.7771 17.166 36.784 16.9458C36.8066 16.2619 36.8697 15.5746 36.4904 14.942C36.3027 14.6409 36.1495 14.3198 36.0336 13.9846C35.8806 13.5148 35.7798 13.0272 35.6735 12.543C35.5946 12.1874 35.655 11.838 35.7386 11.4837C35.9115 10.7499 36.3519 10.1967 36.8821 9.69542C36.9019 9.68275 36.9233 9.67285 36.9459 9.66602C36.8903 9.92725 36.832 10.1762 36.784 10.4278C36.7034 10.8922 36.6896 11.3656 36.7428 11.8339C36.8046 12.4794 37.0563 13.0689 37.26 13.6735C37.389 14.0323 37.4749 14.4051 37.5158 14.7841C37.5672 15.4239 37.4607 16.0665 37.2058 16.6558C37.0686 16.9841 36.9054 17.2987 36.7531 17.6194L36.7154 17.605Z" fill="black"/>
<path d="M40.1607 15.7108C40.1607 15.4154 40.1573 15.1193 40.1607 14.8218C40.1754 14.3473 40.1105 13.8737 39.9687 13.4206C39.8727 13.1313 39.7533 12.8495 39.6641 12.5582C39.6045 12.3647 39.5956 12.1561 39.5373 11.9619C39.4563 11.6883 39.5071 11.425 39.6058 11.1754C39.8316 10.5622 40.2161 10.0195 40.7204 9.60254C40.7081 9.70033 40.7019 9.79949 40.6841 9.8966C40.5853 10.4396 40.4886 10.9812 40.5058 11.5379C40.5262 11.9484 40.619 12.3522 40.7801 12.7305C40.905 13.0451 41.0545 13.3624 41.0284 13.7044C40.9996 14.0003 40.9434 14.2928 40.8604 14.5784C40.752 15.0125 40.5247 15.4082 40.204 15.7211L40.1607 15.7108Z" fill="black"/>
<path d="M51.4625 40.1074H50.6737C50.6737 39.9412 50.6737 39.799 50.6737 39.6561C50.6769 39.0634 50.6806 38.4707 50.6847 37.878C50.6847 37.7823 50.6634 37.6729 50.6991 37.5956C50.719 37.5588 50.7468 37.5268 50.7806 37.5021C50.8145 37.4774 50.8534 37.4605 50.8946 37.4527C51.0751 37.4383 51.2566 37.4383 51.4371 37.4527C51.463 37.4514 51.4889 37.4559 51.5129 37.4657C51.5369 37.4756 51.5584 37.4905 51.5759 37.5096C51.5935 37.5286 51.6066 37.5513 51.6144 37.576C51.6222 37.6006 51.6244 37.6267 51.621 37.6524C51.6168 37.8712 51.621 38.09 51.6127 38.3082C51.6003 38.4129 51.5794 38.5165 51.5503 38.618C51.5254 38.6976 51.508 38.7793 51.4982 38.8621C51.4899 39.2136 51.4913 39.5651 51.4858 39.9159C51.4823 39.9802 51.4745 40.0442 51.4625 40.1074Z" fill="black"/>
<path d="M55.958 21.7714V18.311C56.1185 18.322 56.2831 18.3316 56.4471 18.3452C56.9958 18.391 57.5493 18.4136 58.0932 18.4929C58.524 18.5538 58.9307 18.7248 59.2243 19.0612C59.6503 19.5502 59.806 20.1294 59.6009 20.7483C59.4596 21.1758 59.1091 21.4507 58.6996 21.6374C58.4351 21.7548 58.1473 21.8104 57.858 21.8001L55.958 21.7714Z" fill="#FF8E00"/>
<path d="M32.7495 45.3502C32.7296 44.918 33.0849 44.4851 33.565 44.4222C34.028 44.3613 34.4978 44.3538 34.9649 44.3271C34.9992 44.3271 35.0706 44.3955 35.0678 44.429C35.0342 44.9358 34.9457 45.4261 34.5664 45.8084C34.2461 46.1319 33.8401 46.2399 33.4004 46.2187C33.0794 46.2016 32.8146 45.887 32.7618 45.513C32.7563 45.4576 32.7536 45.4035 32.7495 45.3502Z" fill="#FF8E00"/>
<path d="M49.1784 43.9083C48.8258 43.9083 48.4739 43.9083 48.1221 43.9083C48.0576 43.9083 48.0068 43.9124 48.0068 43.8235C48.0068 43.2976 48.1035 42.8073 48.5425 42.4599C48.9157 42.1645 49.3334 42.068 49.7923 42.2479C50.0995 42.3683 50.2559 42.6213 50.3328 42.916C50.3832 43.1579 50.418 43.4028 50.437 43.6491C50.4528 43.775 50.3924 43.842 50.2635 43.842H49.1784V43.9083Z" fill="#FF8E00"/>
</svg>
