<svg width="54" height="54" viewBox="0 0 54 54" fill="none" xmlns="http://www.w3.org/2000/svg">
<path d="M18.2531 26.9805H36" stroke="white" stroke-width="1.5" stroke-linecap="round" stroke-linejoin="round"/>
<path d="M18 32C18.5679 31.7527 19.1806 31.625 19.8 31.625C20.4194 31.625 21.0321 31.7527 21.6 32V32C22.1679 32.2473 22.7806 32.375 23.4 32.375C24.0194 32.375 24.6321 32.2473 25.2 32C25.7679 31.7527 26.3806 31.625 27 31.625C27.6194 31.625 28.2321 31.7527 28.8 32V32C29.3679 32.2473 29.9806 32.375 30.6 32.375C31.2194 32.375 31.8321 32.2473 32.4 32C32.9679 31.7527 33.5806 31.625 34.2 31.625C34.8194 31.625 35.4321 31.7527 36 32V32" stroke="white" stroke-width="1.5" stroke-linecap="round" stroke-linejoin="round"/>
<path d="M18.7506 26.3777L27.4014 19.4413C27.614 19.2732 27.8577 19.1489 28.1186 19.0756C28.3795 19.0022 28.6523 18.9813 28.9213 19.014C30.8725 19.2431 32.6716 20.181 33.9767 21.6495C35.2817 23.1181 36.0018 25.0149 36 26.9796V33.9955C36.0006 34.5265 35.7902 35.036 35.4152 35.412C35.0401 35.7879 34.531 35.9994 34 36H20C19.469 35.9994 18.9599 35.7879 18.5848 35.412C18.2098 35.036 17.9994 34.5265 18 33.9955V27.943C17.9999 27.6426 18.0673 27.3459 18.1972 27.075C18.3272 26.8041 18.5163 26.5658 18.7506 26.3777V26.3777Z" stroke="white" stroke-width="1.5" stroke-linecap="round" stroke-linejoin="round"/>
</svg>
