<svg width="54" height="54" viewBox="0 0 54 54" fill="none" xmlns="http://www.w3.org/2000/svg">
<path d="M19 25.5H31C31.2652 25.5 31.5196 25.6054 31.7071 25.7929C31.8946 25.9804 32 26.2348 32 26.5V29.5C32 31.0913 31.3679 32.6174 30.2426 33.7426C29.1174 34.8679 27.5913 35.5 26 35.5H24C22.4087 35.5 20.8826 34.8679 19.7574 33.7426C18.6321 32.6174 18 31.0913 18 29.5V26.5C18 26.2348 18.1054 25.9804 18.2929 25.7929C18.4804 25.6054 18.7348 25.5 19 25.5V25.5Z" stroke="white" stroke-width="1.5" stroke-linecap="round" stroke-linejoin="round"/>
<path d="M28.5 22.5C28.179 22.163 28 21.7154 28 21.25C28 20.7846 28.179 20.337 28.5 20C28.821 19.663 29 19.2154 29 18.75C29 18.2846 28.821 17.837 28.5 17.5" stroke="white" stroke-width="1.5" stroke-linecap="round" stroke-linejoin="round"/>
<path d="M25 22.5C24.679 22.163 24.5 21.7154 24.5 21.25C24.5 20.7846 24.679 20.337 25 20C25.321 19.663 25.5 19.2154 25.5 18.75C25.5 18.2846 25.321 17.837 25 17.5" stroke="white" stroke-width="1.5" stroke-linecap="round" stroke-linejoin="round"/>
<path d="M21.5 22.5C21.179 22.163 21 21.7154 21 21.25C21 20.7846 21.179 20.337 21.5 20C21.821 19.663 22 19.2154 22 18.75C22 18.2846 21.821 17.837 21.5 17.5" stroke="white" stroke-width="1.5" stroke-linecap="round" stroke-linejoin="round"/>
<path d="M31.1278 32.6149L32.9736 32.1926C33.8334 31.9958 34.6011 31.513 35.1508 30.8232C35.7006 30.1334 36 29.2774 36 28.3954V28.3954C36 28.0151 35.9251 27.6386 35.7796 27.2874C35.6341 26.9361 35.4208 26.6169 35.152 26.348C34.8831 26.0792 34.5639 25.8659 34.2127 25.7204C33.8614 25.5749 33.4849 25.5 33.1047 25.5H30.5" stroke="white" stroke-width="1.5" stroke-linecap="round" stroke-linejoin="round"/>
</svg>
