<svg width="54" height="54" viewBox="0 0 54 54" fill="none" xmlns="http://www.w3.org/2000/svg">
<path d="M33.5 24L32.292 34.2344C32.2346 34.7209 32.0006 35.1694 31.6345 35.4948C31.2684 35.8203 30.7956 36 30.3057 36H23.6953C23.2055 36 22.7327 35.8203 22.3666 35.4949C22.0005 35.1695 21.7665 34.7211 21.7091 34.2346L20.5 24" stroke="white" stroke-width="1.5" stroke-linecap="round" stroke-linejoin="round"/>
<path d="M30.6103 18H23.3896C22.9551 18 22.5324 18.1415 22.1854 18.4031C21.8385 18.6648 21.5862 19.0323 21.4667 19.4501L21.1665 20.5H20.5002C20.2903 20.5 20.0857 20.5661 19.9154 20.6888C19.7451 20.8116 19.6178 20.9848 19.5515 21.184L19.052 22.684C19.0019 22.8343 18.9883 22.9944 19.0122 23.151C19.0361 23.3076 19.0969 23.4563 19.1896 23.5848C19.2822 23.7133 19.4041 23.818 19.5451 23.8902C19.6862 23.9624 19.8423 24 20.0008 24H33.9992C34.1576 24 34.3138 23.9624 34.4548 23.8902C34.5959 23.818 34.7177 23.7133 34.8104 23.5848C34.903 23.4563 34.9638 23.3076 34.9877 23.151C35.0117 22.9944 34.998 22.8343 34.948 22.684L34.4485 21.184C34.3821 20.9848 34.2548 20.8116 34.0845 20.6888C33.9143 20.5661 33.7097 20.5 33.4997 20.5H32.8335L32.5332 19.4501C32.4137 19.0323 32.1614 18.6648 31.8145 18.4031C31.4676 18.1415 31.0449 18 30.6103 18V18Z" stroke="white" stroke-width="1.5" stroke-linecap="round" stroke-linejoin="round"/>
</svg>
