<svg width="54" height="54" viewBox="0 0 54 54" fill="none" xmlns="http://www.w3.org/2000/svg">
<path d="M24 22V22C24 20.3432 25.3432 19 27 19C28.6568 19 30 20.3432 30 22V22V22C30.8284 21.1716 32.1716 21.1716 33 22C33 22 33 22 33 22" stroke="white" stroke-width="1.5" stroke-linecap="round" stroke-linejoin="round"/>
<path d="M24 28V28C24 26.3432 25.3432 25 27 25C28.6568 25 30 26.3432 30 28V28" stroke="white" stroke-width="1.5" stroke-linecap="round" stroke-linejoin="round"/>
<path d="M27 25V25.0004C27 23.3433 25.6567 22 23.9996 22C22.6143 22 21.4091 22.9484 21.0833 24.2948V24.2948C21.0221 24.5499 20.7656 24.7071 20.5104 24.6458C20.4789 24.6382 20.4481 24.6274 20.4188 24.6136V24.6136C19.5193 24.2486 18.4942 24.6819 18.1292 25.5814C17.8637 26.2357 18.0156 26.9855 18.5148 27.4849L19.1955 28.1656" stroke="white" stroke-width="1.5" stroke-linecap="round" stroke-linejoin="round"/>
<path d="M33 22V22C33.653 22.647 33.8108 23.6428 33.39 24.46" stroke="white" stroke-width="1.5" stroke-linecap="round" stroke-linejoin="round"/>
<path d="M34.8 33.6V33.6C33.6669 35.1108 31.8885 36 30 36H24V36C22.1115 36 20.3331 35.1108 19.2 33.6H19.2C18.4211 32.5614 18 31.2982 18 30V30V30C18 28.8954 18.8954 28 20 28H34V28C35.1046 28 36 28.8954 36 30V30C36 31.2982 35.5789 32.5614 34.8 33.6V33.6Z" stroke="white" stroke-width="1.5" stroke-linecap="round" stroke-linejoin="round"/>
<path d="M34.9829 28.2681V28.2681C35.5764 27.455 35.897 26.4747 35.8986 25.4681V24.8681V24.8681C35.8986 24.5367 35.6299 24.2681 35.2986 24.2681H34.6985V24.2681C32.4616 24.2703 30.5234 25.8188 30.0273 28" stroke="white" stroke-width="1.5" stroke-linecap="round" stroke-linejoin="round"/>
</svg>
