<svg width="54" height="54" viewBox="0 0 54 54" fill="none" xmlns="http://www.w3.org/2000/svg">
<path d="M34.5 21V20C34.5 19.4477 34.0523 19 33.5 19H32C31.4477 19 31 19.4477 31 20V21C31 21.5523 31.4477 22 32 22H33.5C34.0523 22 34.5 21.5523 34.5 21Z" stroke="white" stroke-width="1.5" stroke-linecap="round" stroke-linejoin="round"/>
<path d="M29.5 26V25.5208C29.5 24.8176 29.7281 24.1334 30.15 23.5708L31.4512 21.8359" stroke="white" stroke-width="1.5" stroke-linecap="round" stroke-linejoin="round"/>
<path d="M34.0488 21.8359L35.35 23.5709C35.772 24.1334 36 24.8177 36 25.5209V26" stroke="white" stroke-width="1.5" stroke-linecap="round" stroke-linejoin="round"/>
<path d="M25.5 26H16.5" stroke="white" stroke-width="1.5" stroke-linecap="round" stroke-linejoin="round"/>
<path d="M28.5 19.5C28.5 18.6716 27.8284 18 27 18C26.1716 18 25.5 18.6716 25.5 19.5V28.5C25.5 29.3284 26.1716 30 27 30C27.8284 30 28.5 29.3284 28.5 28.5V19.5Z" stroke="white" stroke-width="1.5" stroke-linecap="round" stroke-linejoin="round"/>
<path d="M18 26L19.3569 32.7844C19.5382 33.6912 20.0281 34.5071 20.7433 35.0934C21.4584 35.6796 22.3545 36 23.2792 36H30.7208C31.6455 36 32.5416 35.6796 33.2567 35.0934C33.9719 34.5071 34.4618 33.6912 34.6431 32.7845L36 26" stroke="white" stroke-width="1.5" stroke-linecap="round" stroke-linejoin="round"/>
<path d="M18 26V25C18 24.337 18.2634 23.7011 18.7322 23.2322C19.2011 22.7634 19.837 22.5 20.5 22.5C20.5 21.837 20.7634 21.2011 21.2322 20.7322C21.7011 20.2634 22.337 20 23 20C23.663 20 24.2989 20.2634 24.7678 20.7322C25.2366 21.2011 25.5 21.837 25.5 22.5" stroke="white" stroke-width="1.5" stroke-linecap="round" stroke-linejoin="round"/>
<path d="M37.5 26H28.5" stroke="white" stroke-width="1.5" stroke-linecap="round" stroke-linejoin="round"/>
</svg>
