<svg width="54" height="54" viewBox="0 0 54 54" fill="none" xmlns="http://www.w3.org/2000/svg">
<path d="M20.1411 33.047L18.5895 32.5298C18.1266 32.3755 17.7241 32.0795 17.4388 31.6837C17.1535 31.2879 17 30.8124 17 30.3246V30C17 29.4696 17.2107 28.9609 17.5858 28.5858C17.9609 28.2107 18.4696 28 19 28H21" stroke="white" stroke-width="1.5" stroke-linecap="round" stroke-linejoin="round"/>
<path d="M29 29V32C29 33.0609 28.5786 34.0783 27.8284 34.8284C27.0783 35.5786 26.0609 36 25 36H24C22.9391 36 21.9217 35.5786 21.1716 34.8284C20.4214 34.0783 20 33.0609 20 32V29C20 28.7348 20.1054 28.4804 20.2929 28.2929C20.4804 28.1054 20.7348 28 21 28H28C28.2652 28 28.5196 28.1054 28.7071 28.2929C28.8946 28.4804 29 28.7348 29 29Z" stroke="white" stroke-width="1.5" stroke-linecap="round" stroke-linejoin="round"/>
<path d="M23 25V20.4721C23 20.1616 23.0723 19.8554 23.2112 19.5777L23.4472 19.1056C23.6133 18.7734 23.8687 18.494 24.1846 18.2987C24.5006 18.1034 24.8646 18 25.2361 18H34.7639C35.1354 18 35.4994 18.1034 35.8154 18.2987C36.1313 18.494 36.3867 18.7734 36.5528 19.1056L36.7889 19.5777C36.9277 19.8554 37 20.1616 37 20.4721V31.5279C37 31.8384 36.9277 32.1446 36.7889 32.4223L36.5528 32.8944C36.3867 33.2266 36.1313 33.506 35.8154 33.7013C35.4994 33.8966 35.1354 34 34.7639 34H32" stroke="white" stroke-width="1.5" stroke-linecap="round" stroke-linejoin="round"/>
<path d="M23 21H37" stroke="white" stroke-width="1.5" stroke-linecap="round" stroke-linejoin="round"/>
<path d="M37 31H32" stroke="white" stroke-width="1.5" stroke-linecap="round" stroke-linejoin="round"/>
</svg>
