<svg width="18" height="18" viewBox="0 0 18 18" fill="none" xmlns="http://www.w3.org/2000/svg">
<path fill-rule="evenodd" clip-rule="evenodd" d="M5.208 14.25H3.792C3.35475 14.25 3 13.8953 3 13.458V7.917C3 7.47975 3.35475 7.125 3.792 7.125H5.208C5.64525 7.125 6 7.47975 6 7.917V13.458C6 13.8953 5.64525 14.25 5.208 14.25V14.25Z" stroke="white" stroke-width="1.5" stroke-linecap="round" stroke-linejoin="round"/>
<path d="M6 7.92917L8.73675 4.36592C9.246 3.70217 10.2405 3.68567 10.7722 4.33142V4.33142C10.971 4.57217 11.079 4.87517 11.079 5.18717V7.64042H13.401C13.8518 7.64042 14.2725 7.86542 14.523 8.23967L14.7697 8.60792C14.991 8.93867 15.0555 9.35042 14.9453 9.73217L13.926 13.2737C13.7595 13.8519 13.2307 14.2502 12.6292 14.2502H7.9125C7.5375 14.2502 7.179 14.0942 6.924 13.8197L6 12.8252" stroke="white" stroke-width="1.5" stroke-linecap="round" stroke-linejoin="round"/>
</svg>
