<svg width="120" height="111" viewBox="0 0 120 111" fill="none" xmlns="http://www.w3.org/2000/svg">
<path d="M117.246 0H1.92206C0.861085 0 0 0.79678 0 1.77853V108.49C0 109.472 0.861085 110.269 1.92206 110.269H117.246C118.307 110.269 119.168 109.472 119.168 108.49V1.77853C119.168 0.79678 118.307 0 117.246 0ZM115.324 106.712H3.84413V3.55705H115.324V106.712Z" fill="white"/>
<path d="M9.6103 39.1278H40.3633C41.4243 39.1278 42.2854 38.331 42.2854 37.3492V8.89279C42.2854 7.91104 41.4243 7.11426 40.3633 7.11426H9.6103C8.54932 7.11426 7.68823 7.91104 7.68823 8.89279V37.3492C7.68823 38.331 8.54932 39.1278 9.6103 39.1278ZM11.5324 10.6713H38.4413V35.5707H11.5324V10.6713Z" fill="white"/>
<path d="M32.675 14.228H17.2985C16.2375 14.228 15.3765 15.0248 15.3765 16.0066V30.2348C15.3765 31.2165 16.2375 32.0133 17.2985 32.0133H32.675C33.736 32.0133 34.5971 31.2165 34.5971 30.2348V16.0066C34.5971 15.0248 33.736 14.228 32.675 14.228ZM30.753 28.4562H19.2206V17.7851H30.753V28.4562Z" fill="white"/>
<path d="M9.6103 103.155H40.3633C41.4243 103.155 42.2854 102.358 42.2854 101.376V72.9196C42.2854 71.9379 41.4243 71.1411 40.3633 71.1411H9.6103C8.54932 71.1411 7.68823 71.9379 7.68823 72.9196V101.376C7.68823 102.358 8.54932 103.155 9.6103 103.155ZM11.5324 74.6982H38.4413V99.5975H11.5324V74.6982Z" fill="white"/>
<path d="M32.675 78.2554H17.2985C16.2375 78.2554 15.3765 79.0522 15.3765 80.0339V94.2621C15.3765 95.2439 16.2375 96.0406 17.2985 96.0406H32.675C33.736 96.0406 34.5971 95.2439 34.5971 94.2621V80.0339C34.5971 79.0522 33.736 78.2554 32.675 78.2554ZM30.753 92.4836H19.2206V81.8124H30.753V92.4836Z" fill="white"/>
<path d="M78.8046 39.1278H109.558C110.619 39.1278 111.48 38.331 111.48 37.3492V8.89279C111.48 7.91104 110.619 7.11426 109.558 7.11426H78.8046C77.7437 7.11426 76.8826 7.91104 76.8826 8.89279V37.3492C76.8826 38.331 77.7437 39.1278 78.8046 39.1278ZM80.7267 10.6713H107.636V35.5707H80.7267V10.6713Z" fill="white"/>
<path d="M101.869 14.228H86.4929C85.4319 14.228 84.5708 15.0248 84.5708 16.0066V30.2348C84.5708 31.2165 85.4319 32.0133 86.4929 32.0133H101.869C102.93 32.0133 103.791 31.2165 103.791 30.2348V16.0066C103.791 15.0248 102.93 14.228 101.869 14.228ZM99.9473 28.4562H88.4149V17.7851H99.9473V28.4562Z" fill="white"/>
<path d="M59.584 7.11426H73.0384V10.6714H59.584V7.11426Z" fill="white"/>
<path d="M53.8178 17.7854H65.3502V24.8995H69.1943V17.7854H73.0385V14.2284H55.7399V7.11426H51.8958V16.0069C51.8958 16.9886 52.7568 17.7854 53.8178 17.7854Z" fill="white"/>
<path d="M46.1295 28.4565H49.9736V32.0135H46.1295V28.4565Z" fill="white"/>
<path d="M57.6619 37.349V32.0134H73.0384V28.4564H57.6619V24.8993H61.506V21.3423H46.1295V24.8993H53.8178V35.5704H46.1295V39.1275H55.7398C56.8008 39.1275 57.6619 38.3307 57.6619 37.349Z" fill="white"/>
<path d="M61.5061 35.5703H73.0385V39.1273H61.5061V35.5703Z" fill="white"/>
<path d="M99.9473 71.1411H111.48V74.6982H99.9473V71.1411Z" fill="white"/>
<path d="M96.1032 71.1411H92.259V80.0338C92.259 81.0155 93.1201 81.8123 94.1811 81.8123H103.791V88.9264H107.636V81.8123H111.48V78.2552H96.1032V71.1411Z" fill="white"/>
<path d="M84.5708 92.4834H88.4149V96.0405H84.5708V92.4834Z" fill="white"/>
<path d="M96.1032 88.9262H99.9473V85.3691H84.5708V88.9262H92.2591V99.5973H84.5708V103.154H94.1811C95.2421 103.154 96.1032 102.358 96.1032 101.376V96.0403H111.48V92.4832H96.1032V88.9262Z" fill="white"/>
<path d="M99.9473 99.5977H111.48V103.155H99.9473V99.5977Z" fill="white"/>
<path d="M23.0648 85.3691H26.9089V88.9262H23.0648V85.3691Z" fill="white"/>
<path d="M23.0648 21.3423H26.9089V24.8993H23.0648V21.3423Z" fill="white"/>
<path d="M92.259 21.3423H96.1032V24.8993H92.259V21.3423Z" fill="white"/>
<path d="M73.0384 88.9263V85.3693H61.506V72.9196C61.506 71.9379 60.6449 71.1411 59.584 71.1411H46.1295V74.6982H49.9736V80.0337C49.9736 81.0155 50.8347 81.8122 51.8957 81.8122H57.6619V85.3693H46.1295V88.9263H57.6619V92.4834H51.8957C50.8347 92.4834 49.9736 93.2802 49.9736 94.2619V99.5975H46.1295V103.155H59.584C60.6449 103.155 61.506 102.358 61.506 101.376V88.9263H73.0384ZM53.8178 78.2552V74.6982H57.6619V78.2552H53.8178ZM53.8178 99.5975V96.0404H57.6619V99.5975H53.8178Z" fill="white"/>
<path d="M65.3502 94.2619V103.154H69.1943V96.0404H73.0385V103.154H76.8826V96.0404H80.7267V92.4834H67.2723C66.2113 92.4834 65.3502 93.2802 65.3502 94.2619Z" fill="white"/>
<path d="M78.8047 74.6982H69.1943V71.1411H65.3502V81.8123H69.1943V78.2552H76.8826V88.9264H80.7267V76.4767C80.7267 75.4949 79.8656 74.6982 78.8047 74.6982Z" fill="white"/>
<path d="M84.5708 71.1411H88.4149V81.8123H84.5708V71.1411Z" fill="white"/>
<path d="M99.9473 42.6846H111.48V46.2416H99.9473V42.6846Z" fill="white"/>
<path d="M96.1032 42.6846H92.2591V51.5772C92.2591 52.559 93.1202 53.3557 94.1811 53.3557H96.1032V56.9128H80.7267V60.4698H84.5708V64.0269H80.7267V67.584H86.4929C87.5539 67.584 88.4149 66.7872 88.4149 65.8054V60.4698H92.2591V65.8054C92.2591 66.7872 93.1202 67.584 94.1811 67.584H111.48V64.0269H96.1032V60.4698H98.0253C99.0862 60.4698 99.9473 59.6731 99.9473 58.6913V53.3557H103.791V60.4698H107.636V53.3557H111.48V49.7987H96.1032V42.6846Z" fill="white"/>
<path d="M84.5708 42.6846H88.4149V53.3558H84.5708V42.6846Z" fill="white"/>
<path d="M61.5061 42.6846H73.0385V46.2416H61.5061V42.6846Z" fill="white"/>
<path d="M53.8177 42.6846V51.5772C53.8177 52.559 54.6788 53.3557 55.7398 53.3557H57.6619V67.584H61.506V53.3557H65.3501V60.4698H69.1943V53.3557H73.0384V49.7987H57.6619V42.6846H53.8177Z" fill="white"/>
<path d="M23.0647 65.8054V44.4631C23.0647 43.4814 22.2037 42.6846 21.1427 42.6846H7.68823V46.2416H11.5324V51.5772C11.5324 52.559 12.3934 53.3557 13.4544 53.3557H19.2206V64.0269H7.68823V67.584H21.1427C22.2037 67.584 23.0647 66.7872 23.0647 65.8054ZM15.3765 49.7987V46.2416H19.2206V49.7987H15.3765Z" fill="white"/>
<path d="M26.9089 42.6846V53.3557H30.7531V49.7987H38.4413V60.4698H42.2854V48.0202C42.2854 47.0384 41.4244 46.2416 40.3634 46.2416H30.7531V42.6846H26.9089Z" fill="white"/>
<path d="M46.1295 42.6846H49.9736V53.3558H46.1295V42.6846Z" fill="white"/>
<path d="M30.7531 56.9131H26.9089V65.8057C26.9089 66.7875 27.77 67.5843 28.831 67.5843H48.0516C49.1126 67.5843 49.9737 66.7875 49.9737 65.8057V56.9131H46.1296V64.0272H30.7531V56.9131Z" fill="white"/>
<path d="M32.675 51.5771H36.5192V62.2483H32.675V51.5771Z" fill="white"/>
<path d="M51.8958 55.1343H55.7399V67.584H51.8958V55.1343Z" fill="white"/>
<path d="M73.0385 64.0272H65.3502V67.5843H74.9605C76.0215 67.5843 76.8826 66.7875 76.8826 65.8057V56.9131H73.0385V64.0272Z" fill="white"/>
<path d="M76.8826 49.7988H80.7267V53.356H76.8826V49.7988Z" fill="white"/>
<path d="M76.8826 42.6846H80.7267V46.2416H76.8826V42.6846Z" fill="white"/>
</svg>
