<svg width="123" height="123" viewBox="0 0 123 123" fill="none" xmlns="http://www.w3.org/2000/svg">
<path d="M78.5816 97.375L70.0434 102.5L61.5 97.375L52.9566 102.5L44.4184 97.375L35.875 102.5V35.875H87.125V102.5L78.5816 97.375Z" stroke="white" stroke-width="2" stroke-linecap="round" stroke-linejoin="round"/>
<path d="M51.25 82H71.75" stroke="white" stroke-width="2" stroke-linecap="round" stroke-linejoin="round"/>
<path d="M87.1244 56.375H97.3744V56.375C103.428 55.9451 108.003 50.7159 107.624 44.6593V27.0908V27.0908C108.003 21.0341 103.428 15.8049 97.3744 15.375H25.6244V15.375C19.5712 15.8049 14.9962 21.0341 15.3744 27.0908V44.6644V44.6644C14.9963 50.7201 19.572 55.9478 25.6244 56.375H35.8744" stroke="white" stroke-width="2" stroke-linecap="round" stroke-linejoin="round"/>
<path d="M54.4751 52.9629L67.4653 65.9531" stroke="#F23939" stroke-width="1.5" stroke-linecap="round" stroke-linejoin="round"/>
<path d="M67.4653 52.9609L54.4751 65.9512" stroke="#F23939" stroke-width="1.5" stroke-linecap="round" stroke-linejoin="round"/>
</svg>
