<?xml version="1.0" standalone="no"?>
<!DOCTYPE svg PUBLIC "-//W3C//DTD SVG 20010904//EN"
 "http://www.w3.org/TR/2001/REC-SVG-20010904/DTD/svg10.dtd">
<svg version="1.0" xmlns="http://www.w3.org/2000/svg"
 width="700.000000pt" height="700.000000pt" viewBox="0 0 700.000000 700.000000"
 preserveAspectRatio="xMidYMid meet">
<metadata>
Created by potrace 1.14, written by Peter Selinger 2001-2017
</metadata>
<g transform="translate(0.000000,700.000000) scale(0.100000,-0.100000)"
fill="#000000" stroke="none">
<path d="M3390 4625 l-193 -193 -1 -802 -1 -801 56 -53 56 -54 175 0 175 0 56
54 55 54 1 956 0 956 -42 18 c-23 10 -65 27 -93 38 l-51 20 -193 -193z"/>
<path d="M4068 4393 c-1 -5 -29 -27 -60 -51 l-58 -43 -1 -67 c-1 -37 -3 -80
-4 -97 -1 -16 -5 -109 -9 -205 -5 -96 -9 -197 -11 -225 -1 -27 -5 -129 -9
-225 -4 -96 -9 -199 -11 -228 -2 -29 -7 -135 -10 -236 l-7 -184 53 -56 52 -56
1102 0 1101 0 56 58 c50 50 56 61 53 92 -4 47 -16 210 -20 285 -5 89 -15 243
-20 300 -7 84 -18 248 -18 285 0 35 -14 60 -61 114 -24 27 -83 43 -1058 287
-568 142 -1038 259 -1045 259 -6 0 -13 -3 -15 -7z m1600 -1100 l-3 -168 -30 1
c-16 1 -111 5 -210 8 -99 4 -227 9 -285 11 -119 5 -328 13 -535 20 -269 10
-345 14 -353 19 -7 4 -9 213 -1 220 2 2 87 7 189 10 173 6 307 11 560 21 58 2
191 7 295 11 105 3 191 7 192 8 1 0 42 2 92 4 l91 2 -2 -167z"/>
<path d="M2680 3779 c-107 -28 -204 -52 -215 -54 -11 -3 -254 -63 -540 -135
-286 -73 -527 -133 -535 -135 -8 -2 -55 -13 -105 -25 -49 -12 -106 -26 -125
-30 -19 -5 -107 -27 -195 -49 -158 -40 -160 -41 -201 -86 -36 -39 -42 -54 -49
-108 -4 -34 -9 -71 -10 -82 -2 -11 -9 -60 -15 -110 -7 -49 -14 -97 -15 -105
-1 -8 22 -42 51 -76 l54 -61 1100 1 1101 1 49 55 50 55 -6 110 c-12 217 -23
392 -29 455 -2 25 -7 95 -11 155 -4 61 -8 121 -9 135 -2 14 -3 30 -4 36 -1 12
-124 104 -137 103 -5 0 -97 -23 -204 -50z"/>
<path d="M1687 2538 l-33 -36 1 -126 1 -126 34 -35 34 -35 161 0 161 0 33 34
33 34 -1 132 -1 132 -35 32 -34 31 -161 0 -160 0 -33 -37z"/>
</g>
</svg>
